<?xml version="1.0" encoding="UTF-8"?>
<svg id="Layer_2" data-name="Layer 2" xmlns="http://www.w3.org/2000/svg" viewBox="0 0 200 35">
  <defs>
    <style>
      .cls-1 {
        fill: #fefefe;
      }

      .cls-1, .cls-2 {
        stroke-width: 0px;
      }

      .cls-3, .cls-4 {
        font-size: 22px;
      }

      .cls-5, .cls-6, .cls-7 {
        font-size: 14px;
      }

      .cls-8 {
        fill: #fff;
        font-family: FuturaStd-Medium, 'Futura Std';
        font-weight: 500;
      }

      .cls-2 {
        fill: #5cb85c;
      }

      .cls-6 {
        letter-spacing: -.1em;
      }

      .cls-7 {
        letter-spacing: 0em;
      }

      .cls-4 {
        letter-spacing: -.1em;
      }
    </style>
  </defs>
  <g id="Layer_1-2" data-name="Layer 1">
    <rect class="cls-2" x="0" width="200" height="35" rx="10" ry="10"/>
    <g>
      <text class="cls-8" transform="translate(72.26 25.71)"><tspan class="cls-3" x="0" y="0"> </tspan><tspan class="cls-4" x="6.36" y="0">1</tspan><tspan class="cls-3" x="16.87" y="0">00</tspan><tspan class="cls-7" x="42.3" y="0">/</tspan><tspan class="cls-6" x="50.02" y="0">1</tspan><tspan class="cls-5" x="56.71" y="0">00</tspan></text>
      <path class="cls-1" d="M57.32,17.88c.45.52.72.48,1.2,0,3.24-3.29,6.51-6.54,9.78-9.8.7-.93,1.12-.87,1.84-.03.73.72,1.45,1.45,2.21,2.14.53.49.51.93.03,1.42-4.63,4.58-9.24,9.18-13.85,13.78-.41.42-.79.43-1.21.02-1.92-1.96-3.86-3.9-5.79-5.85-.32-.28-.37-.58-.1-.91.99-.98,1.96-1.96,2.94-2.94.35-.28.69-.19.98.18.66.66,1.36,1.29,1.97,1.99Z"/>
    </g>
  </g>
</svg>